<?xml version="1.0" encoding="UTF-8" standalone="no"?>
<svg
   xmlns:dc="http://purl.org/dc/elements/1.1/"
   xmlns:cc="http://creativecommons.org/ns#"
   xmlns:rdf="http://www.w3.org/1999/02/22-rdf-syntax-ns#"
   xmlns:svg="http://www.w3.org/2000/svg"
   xmlns="http://www.w3.org/2000/svg"
   xmlns:sodipodi="http://sodipodi.sourceforge.net/DTD/sodipodi-0.dtd"
   xmlns:inkscape="http://www.inkscape.org/namespaces/inkscape"
   width="128"
   height="128"
   viewBox="0 0 33.866666 33.866666"
   version="1.1"
   id="svg24"
   inkscape:version="1.0.2 (e86c870879, 2021-01-15)"
   sodipodi:docname="double-hold-symbolic.svg">
  <metadata
     id="metadata14">
    <rdf:RDF>
      <cc:Work
         rdf:about="">
        <dc:format>image/svg+xml</dc:format>
        <dc:type
           rdf:resource="http://purl.org/dc/dcmitype/StillImage" />
      </cc:Work>
    </rdf:RDF>
  </metadata>
  <defs
     id="defs12" />
  <sodipodi:namedview
     pagecolor="#ffffff"
     bordercolor="#666666"
     borderopacity="1"
     objecttolerance="10"
     gridtolerance="10"
     guidetolerance="10"
     inkscape:pageopacity="0"
     inkscape:pageshadow="2"
     inkscape:window-width="956"
     inkscape:window-height="1028"
     id="namedview10"
     showgrid="false"
     inkscape:zoom="6.9453125"
     inkscape:cx="75.509054"
     inkscape:cy="64"
     inkscape:window-x="0"
     inkscape:window-y="50"
     inkscape:window-maximized="0"
     inkscape:current-layer="g214"
     inkscape:document-rotation="0" />
  <g
     inkscape:label="Double Hold"
     inkscape:groupmode="layer"
     id="g214"
     style="display:inline">
    <path
       id="circle204"
       style="fill:#000000;stroke:#000000;stroke-width:0.192718;stroke-linecap:round;stroke-linejoin:round"
       d="M 8.3703082,16.933334 A 3.0786412,3.0786412 0 0 1 5.291667,20.011976 3.0786412,3.0786412 0 0 1 2.2130258,16.933334 3.0786412,3.0786412 0 0 1 5.291667,13.854693 3.0786412,3.0786412 0 0 1 8.3703082,16.933334 Z" />
    <path
       id="circle206"
       style="display:inline;fill:#000000;stroke:#000000;stroke-width:0.728383;stroke-linecap:round;stroke-linejoin:round"
       d="M 84 52.363281 A 11.635809 11.635809 0 0 0 72.363281 64 A 11.635809 11.635809 0 0 0 84 75.636719 A 11.635809 11.635809 0 0 0 84.4375 75.626953 L 107.57031 75.626953 A 11.635809 11.635809 0 0 0 108 75.636719 A 11.635809 11.635809 0 0 0 119.63672 64 A 11.635809 11.635809 0 0 0 108 52.363281 A 11.635809 11.635809 0 0 0 107.5625 52.373047 L 84.429688 52.373047 A 11.635809 11.635809 0 0 0 84 52.363281 z "
       transform="scale(0.26458333)" />
    <path
       id="circle204-6"
       style="display:inline;fill:#000000;stroke:#000000;stroke-width:0.192718;stroke-linecap:round;stroke-linejoin:round"
       d="m 16.836974,16.933334 a 3.0786412,3.0786412 0 0 1 -3.078641,3.078642 3.0786412,3.0786412 0 0 1 -3.078641,-3.078642 3.0786412,3.0786412 0 0 1 3.078641,-3.078641 3.0786412,3.0786412 0 0 1 3.078641,3.078641 z" />
  </g>
</svg>
