<?xml version="1.0" encoding="UTF-8" standalone="no"?>
<svg
   xmlns:dc="http://purl.org/dc/elements/1.1/"
   xmlns:cc="http://creativecommons.org/ns#"
   xmlns:rdf="http://www.w3.org/1999/02/22-rdf-syntax-ns#"
   xmlns:svg="http://www.w3.org/2000/svg"
   xmlns="http://www.w3.org/2000/svg"
   xmlns:sodipodi="http://sodipodi.sourceforge.net/DTD/sodipodi-0.dtd"
   xmlns:inkscape="http://www.inkscape.org/namespaces/inkscape"
   width="128"
   height="128"
   viewBox="0 0 33.866666 33.866666"
   version="1.1"
   id="svg24"
   inkscape:version="1.0.2 (e86c870879, 2021-01-15)"
   sodipodi:docname="long-hold-symbolic.svg">
  <metadata
     id="metadata12">
    <rdf:RDF>
      <cc:Work
         rdf:about="">
        <dc:format>image/svg+xml</dc:format>
        <dc:type
           rdf:resource="http://purl.org/dc/dcmitype/StillImage" />
      </cc:Work>
    </rdf:RDF>
  </metadata>
  <defs
     id="defs10" />
  <sodipodi:namedview
     pagecolor="#ffffff"
     bordercolor="#666666"
     borderopacity="1"
     objecttolerance="10"
     gridtolerance="10"
     guidetolerance="10"
     inkscape:pageopacity="0"
     inkscape:pageshadow="2"
     inkscape:window-width="956"
     inkscape:window-height="1028"
     id="namedview8"
     showgrid="false"
     inkscape:zoom="6.9453125"
     inkscape:cx="65.018354"
     inkscape:cy="64"
     inkscape:window-x="0"
     inkscape:window-y="50"
     inkscape:window-maximized="0"
     inkscape:current-layer="g248"
     inkscape:document-rotation="0" />
  <g
     inkscape:label="Long Hold"
     inkscape:groupmode="layer"
     id="g248"
     style="display:inline">
    <path
       id="circle238"
       style="display:inline;fill:#000000;stroke:#000000;stroke-width:0.728383;stroke-linecap:round;stroke-linejoin:round"
       d="M 40 52.363281 A 11.635809 11.635809 0 0 0 28.363281 64 A 11.635809 11.635809 0 0 0 40 75.636719 A 11.635809 11.635809 0 0 0 41.929688 75.474609 L 86.076172 75.474609 A 11.635809 11.635809 0 0 0 88 75.636719 A 11.635809 11.635809 0 0 0 99.636719 64 A 11.635809 11.635809 0 0 0 88 52.363281 A 11.635809 11.635809 0 0 0 86.070312 52.525391 L 41.923828 52.525391 A 11.635809 11.635809 0 0 0 40 52.363281 z "
       transform="scale(0.26458333)" />
  </g>
</svg>
