<?xml version="1.0" encoding="UTF-8" standalone="no"?>
<svg
   xmlns:dc="http://purl.org/dc/elements/1.1/"
   xmlns:cc="http://creativecommons.org/ns#"
   xmlns:rdf="http://www.w3.org/1999/02/22-rdf-syntax-ns#"
   xmlns:svg="http://www.w3.org/2000/svg"
   xmlns="http://www.w3.org/2000/svg"
   xmlns:sodipodi="http://sodipodi.sourceforge.net/DTD/sodipodi-0.dtd"
   xmlns:inkscape="http://www.inkscape.org/namespaces/inkscape"
   width="128"
   height="128"
   viewBox="0 0 33.866666 33.866666"
   version="1.1"
   id="svg24"
   inkscape:version="1.0.2 (e86c870879, 2021-01-15)"
   sodipodi:docname="single-hold-symbolic.svg">
  <metadata
     id="metadata13">
    <rdf:RDF>
      <cc:Work
         rdf:about="">
        <dc:format>image/svg+xml</dc:format>
        <dc:type
           rdf:resource="http://purl.org/dc/dcmitype/StillImage" />
      </cc:Work>
    </rdf:RDF>
  </metadata>
  <defs
     id="defs11" />
  <sodipodi:namedview
     pagecolor="#ffffff"
     bordercolor="#666666"
     borderopacity="1"
     objecttolerance="10"
     gridtolerance="10"
     guidetolerance="10"
     inkscape:pageopacity="0"
     inkscape:pageshadow="2"
     inkscape:window-width="956"
     inkscape:window-height="1028"
     id="namedview9"
     showgrid="false"
     inkscape:zoom="6.9453125"
     inkscape:cx="59.479785"
     inkscape:cy="64"
     inkscape:window-x="0"
     inkscape:window-y="50"
     inkscape:window-maximized="0"
     inkscape:current-layer="g175"
     inkscape:document-rotation="0" />
  <g
     inkscape:label="Single Hold"
     inkscape:groupmode="layer"
     id="g175"
     style="display:inline">
    <path
       id="circle169"
       style="fill:#000000;stroke:#000000;stroke-width:0.192718;stroke-linecap:round;stroke-linejoin:round"
       d="M 11.545308,16.933334 A 3.0786412,3.0786412 0 0 1 8.4666672,20.011976 3.0786412,3.0786412 0 0 1 5.388026,16.933334 3.0786412,3.0786412 0 0 1 8.4666672,13.854693 3.0786412,3.0786412 0 0 1 11.545308,16.933334 Z" />
    <g
       id="g202">
      <path
         id="circle171"
         style="display:inline;fill:#000000;stroke:#000000;stroke-width:0.192718;stroke-linecap:round;stroke-linejoin:round"
         d="m 20.011976,16.933334 a 3.0786412,3.0786412 0 0 1 -3.078642,3.078642 3.0786412,3.0786412 0 0 1 -3.078641,-3.078642 3.0786412,3.0786412 0 0 1 3.078641,-3.078641 3.0786412,3.0786412 0 0 1 3.078642,3.078641 z" />
      <path
         id="circle171-5"
         style="display:inline;fill:#000000;stroke:#000000;stroke-width:0.192718;stroke-linecap:round;stroke-linejoin:round"
         d="m 26.361974,16.933334 a 3.0786412,3.0786412 0 0 1 -3.078641,3.078642 3.0786412,3.0786412 0 0 1 -3.078641,-3.078642 3.0786412,3.0786412 0 0 1 3.078641,-3.078641 3.0786412,3.0786412 0 0 1 3.078641,3.078641 z" />
      <path
         id="rect197"
         style="fill:#000000;stroke:#000000;stroke-width:0.197057;stroke-linecap:round;stroke-linejoin:round"
         d="m 17.031862,13.856862 h 6.152943 v 6.152943 h -6.152943 z" />
    </g>
    <path
       id="path19"
       style="display:inline;fill:#000000;stroke:#000000;stroke-width:0.728383;stroke-linecap:round;stroke-linejoin:round"
       d="M 64 52.363281 A 11.635809 11.635809 0 0 0 52.363281 64 A 11.635809 11.635809 0 0 0 64 75.636719 A 11.635809 11.635809 0 0 0 64.4375 75.626953 L 87.570312 75.626953 A 11.635809 11.635809 0 0 0 88 75.636719 A 11.635809 11.635809 0 0 0 99.636719 64 A 11.635809 11.635809 0 0 0 88 52.363281 A 11.635809 11.635809 0 0 0 87.5625 52.373047 L 64.429688 52.373047 A 11.635809 11.635809 0 0 0 64 52.363281 z "
       transform="scale(0.26458333)" />
  </g>
</svg>
